<svg width="97" height="55" fill="none" xmlns="http://www.w3.org/2000/svg"><g clip-path="url(#clip0)" fill="#363636"><path d="M84.1311 32.639V20.003c0-1.309 1.045-2.37 2.335-2.37l8.326 1.5811V11.02c0-2.35495-1.708-3.43095-4.202-4.26495l-23.187-6.58c1.616 1.391 1.889 2.04 1.889 4.396V49.78c0 2.356-.45 4.0661-1.967 5.2101l23.265-7.0651c2.401-.833 4.202-4.216 4.202-6.5719V33.44l-8.326 1.567c-1.29.002-2.335-1.06-2.335-2.368z"/><path d="M95.129 20.979l-7.598-1.444c-1.008 0-1.824.829-1.824 1.851v9.868c0 1.023.816 1.852 1.824 1.852l7.598-1.431c1.154-.419 1.824-.829 1.824-1.852V22.83c0-1.022-.766-1.507-1.824-1.851zM67.17 4.48303c0-5.08-4.232-4.459-4.232-4.459s-57.10595 4.714-60.09995 5.121c-2.994.407-2.837 4.387-2.837 4.387S.00005 42.069.00005 45.812c0 3.743 2.599 3.753 2.599 3.753L19.076 50.968 27.212 39.3s1.109-1.828 2.505-1.828c1.397 0 2.432 1.861 2.432 1.861l9.061 13.521s18.895 1.909 22.521 1.909c3.626-.001 3.439-5.024 3.439-5.024V4.48303zM12.982 37.192c-3.69795 0-6.69595-4.601-6.69595-10.275s2.998-10.275 6.69595-10.275c3.698 0 6.696 4.601 6.696 10.275s-2.998 10.275-6.696 10.275zm36.158 1.426c-4.6619 0-8.4409-5.239-8.4409-11.701 0-6.463 3.7799-11.702 8.4409-11.702 4.662 0 8.4421 5.239 8.4421 11.702 0 6.462-3.7801 11.701-8.4421 11.701z"/></g><defs><clipPath id="clip0"><path fill="#fff" d="M0 0h97v55H0z"/></clipPath></defs></svg>