<svg width="10" height="10" fill="none" xmlns="http://www.w3.org/2000/svg"><g clip-path="url(#clip0)" fill="#231F20"><path d="M9.86215 2.5217c-.06937-.08179-.16874-.12854-.27288-.12854H7.65774V3.4188c0 .47128-.40415.8547-.9009.8547-.49676 0-.90091-.38342-.90091-.8547V2.39316h-1.8018V3.4188c0 .47128-.40414.8547-.9009.8547-.49675 0-.9009-.38342-.9009-.8547V2.39316H.32089c-.10423 0-.2036.04675-.27297.12854-.06946.0818-.10235.19086-.09045.29975l.6482 5.96316c.01207.67231.53612 1.21538 1.17864 1.21538h6.34153c.64244 0 1.16649-.54307 1.17865-1.21547l.6482-5.96316c.0118-.1088-.02108-.21786-.09054-.29966z"/><path d="M3.15333 3.76068c.19874 0 .36036-.15333.36036-.34188V1.53846c0-.52795.56117-.8547 1.08108-.8547h.9009c.54721 0 .9009.33547.9009.8547V3.4188c0 .18855.16172.34188.36036.34188.19865 0 .36036-.15333.36036-.34188V1.53846C7.11729.64701 6.43531 0 5.49567 0h-.9009c-.99351 0-1.8018.69017-1.8018 1.53846V3.4188c0 .18855.16162.34188.36036.34188z"/></g><defs><clipPath id="clip0"><path fill="#fff" d="M0 0h10v10H0z"/></clipPath></defs></svg>