<svg width="163" height="35" fill="none" xmlns="http://www.w3.org/2000/svg"><g clip-path="url(#clip0)"><path fill-rule="evenodd" clip-rule="evenodd" d="M-.151.70205V34.3021h13.532a15.72113 15.72113 0 006.3677-1.1786 15.72023 15.72023 0 005.3523-3.6454 16.45834 16.45834 0 003.5751-5.5084 16.45683 16.45683 0 001.1369-6.4676 16.457 16.457 0 00-1.1369-6.4677 16.45873 16.45873 0 00-3.5751-5.50835 15.72371 15.72371 0 00-5.3524-3.6452A15.72334 15.72334 0 0013.381.70205H-.151zM7.582 26.9101V8.09105h5.8a8.64582 8.64582 0 016.5 2.56805 9.40816 9.40816 0 011.9329 3.1695 9.40762 9.40762 0 01.5561 3.6705 9.40578 9.40578 0 01-.5561 3.6705 9.40497 9.40497 0 01-1.9329 3.1695 8.64216 8.64216 0 01-2.9788 1.9703 8.64165 8.64165 0 01-3.5212.5977h-5.8v.003zm34.8-5.952h12.082v-7.3H42.378V8.09105h13.291v-7.389H34.645V34.3021H55.91v-7.392H42.378v-5.952h.004zm36.343 13.344L89.744.70205h-8.458L73.795 25.4221 66.304.70205h-8.457L68.866 34.3021h9.859zm14.4 0h7.733V.70205h-7.733V34.3021zm38.615-1.416c2.493-1.3121 4.581-3.2785 6.041-5.688l-6.67-3.84a7.48242 7.48242 0 01-3.165 3.024 9.87276 9.87276 0 01-4.664 1.1 9.59589 9.59589 0 01-3.874-.6186c-1.235-.4708-2.36-1.1917-3.303-2.1174-.91-.9669-1.616-2.1067-2.077-3.3518-.46-1.2451-.666-2.5701-.605-3.8962-.061-1.3262.145-2.6512.605-3.8963.461-1.2451 1.167-2.3849 2.077-3.3517.943-.92582 2.068-1.64671 3.303-2.11752a9.59463 9.59463 0 013.874-.61853c1.611-.02301 3.204.34773 4.639 1.08a7.58898 7.58898 0 013.19 3.04805l6.67-3.84005c-1.487-2.40453-3.59-4.36821-6.09-5.688-2.582-1.39309-5.475-2.1113-8.409-2.088-9.779-.272-17.797 7.691-17.591 17.47205-.208 9.781 7.809 17.747 17.588 17.476 2.95.0272 5.859-.691 8.458-2.088h.003zm17.881-11.928h12.082v-7.3h-12.085V8.09105h13.29v-7.389h-21.023V34.3021h21.265v-7.392h-13.532v-5.952h.003z" fill="#F0C52E"/></g><defs><clipPath id="clip0"><path fill="#fff" d="M0 0h163v35H0z"/></clipPath></defs></svg>